<svg xmlns="http://www.w3.org/2000/svg" xmlns:xlink="http://www.w3.org/1999/xlink" width="1024" zoomAndPan="magnify" viewBox="0 0 768 767.999994" height="1024" preserveAspectRatio="xMidYMid meet" version="1.0"><defs><g/><clipPath id="f7a45b05c5"><path d="M 131 306 L 290 306 L 290 463 L 131 463 Z M 131 306 " clip-rule="nonzero"/></clipPath><clipPath id="4887d56414"><path d="M 210.25 306.066406 C 227.867188 306.066406 244.03125 311.863281 257.082031 321.652344 C 249.179688 322.160156 241.058594 323.101562 233.011719 323.96875 C 224.820312 324.914062 216.773438 325.855469 209.160156 326.289062 C 193.066406 327.160156 178.859375 325.78125 170.523438 316.9375 C 182.121094 310.050781 195.75 306.066406 210.25 306.066406 Z M 286.367188 366.667969 C 279.625 362.753906 271.578125 360.726562 262.808594 359.929688 C 248.890625 358.550781 233.300781 360.363281 217.933594 362.101562 C 209.742188 363.046875 201.621094 363.914062 194.082031 364.351562 C 163.054688 366.089844 128.476562 348.835938 162.402344 322.449219 C 172.40625 334.480469 189.804688 336.441406 209.667969 335.28125 C 217.570312 334.84375 225.761719 333.902344 234.027344 332.960938 C 266.289062 329.335938 277.453125 327.667969 286.367188 366.667969 Z M 280.570312 418.140625 C 272.957031 403.640625 259.253906 397.988281 242.726562 396.390625 C 228.808594 395.015625 213.222656 396.828125 197.851562 398.566406 C 189.660156 399.511719 181.542969 400.378906 174.003906 400.816406 C 130.214844 403.28125 122.167969 384.285156 140.945312 348.183594 C 147.976562 371.308594 169.21875 374.789062 194.589844 373.410156 C 202.492188 372.976562 210.683594 372.035156 218.875 371.09375 C 233.882812 369.351562 249.035156 367.683594 261.9375 368.917969 C 295.359375 372.105469 293.109375 392.1875 280.570312 418.140625 Z M 255.777344 447.574219 C 247.800781 438.222656 236.128906 434.164062 222.644531 432.855469 C 208.726562 431.480469 193.140625 433.292969 177.773438 435.03125 C 148.703125 438.292969 143.410156 438.222656 134.566406 403.425781 C 144.714844 409.730469 158.851562 410.746094 174.507812 409.875 C 182.410156 409.441406 190.601562 408.5 198.796875 407.558594 C 213.800781 405.816406 228.953125 404.148438 241.855469 405.382812 C 272.882812 408.355469 284.410156 426.984375 255.777344 447.574219 Z M 247.4375 452.71875 C 236.417969 458.738281 223.734375 462.21875 210.25 462.21875 C 192.199219 462.21875 175.523438 456.054688 162.332031 445.761719 C 167.695312 445.253906 173.203125 444.601562 178.714844 444.019531 C 193.71875 442.28125 208.871094 440.613281 221.777344 441.847656 C 232.070312 442.789062 241.058594 445.90625 247.4375 452.71875 Z M 247.4375 452.71875 " clip-rule="evenodd"/></clipPath><linearGradient x1="-3.181155" gradientTransform="matrix(7.249444, 0, 0, 7.249444, 131.447786, 306.064468)" y1="6.110424" x2="24.700026" gradientUnits="userSpaceOnUse" y2="14.785176" id="28aa6442ce"><stop stop-opacity="1" stop-color="rgb(91.517639%, 40.226746%, 50.123596%)" offset="0"/><stop stop-opacity="1" stop-color="rgb(91.551208%, 40.127563%, 50.050354%)" offset="0.0078125"/><stop stop-opacity="1" stop-color="rgb(91.621399%, 39.929199%, 49.905396%)" offset="0.015625"/><stop stop-opacity="1" stop-color="rgb(91.691589%, 39.732361%, 49.760437%)" offset="0.0234375"/><stop stop-opacity="1" stop-color="rgb(91.760254%, 39.533997%, 49.615479%)" offset="0.03125"/><stop stop-opacity="1" stop-color="rgb(91.830444%, 39.337158%, 49.47052%)" offset="0.0390625"/><stop stop-opacity="1" stop-color="rgb(91.900635%, 39.138794%, 49.325562%)" offset="0.046875"/><stop stop-opacity="1" stop-color="rgb(91.969299%, 38.94043%, 49.179077%)" offset="0.0546875"/><stop stop-opacity="1" stop-color="rgb(92.03949%, 38.743591%, 49.034119%)" offset="0.0625"/><stop stop-opacity="1" stop-color="rgb(92.10968%, 38.545227%, 48.88916%)" offset="0.0703125"/><stop stop-opacity="1" stop-color="rgb(92.178345%, 38.348389%, 48.744202%)" offset="0.078125"/><stop stop-opacity="1" stop-color="rgb(92.248535%, 38.150024%, 48.599243%)" offset="0.0859375"/><stop stop-opacity="1" stop-color="rgb(92.318726%, 37.953186%, 48.454285%)" offset="0.09375"/><stop stop-opacity="1" stop-color="rgb(92.38739%, 37.754822%, 48.309326%)" offset="0.101563"/><stop stop-opacity="1" stop-color="rgb(92.457581%, 37.556458%, 48.164368%)" offset="0.109375"/><stop stop-opacity="1" stop-color="rgb(92.527771%, 37.359619%, 48.019409%)" offset="0.117188"/><stop stop-opacity="1" stop-color="rgb(92.596436%, 37.161255%, 47.874451%)" offset="0.125"/><stop stop-opacity="1" stop-color="rgb(92.666626%, 36.964417%, 47.729492%)" offset="0.132812"/><stop stop-opacity="1" stop-color="rgb(92.736816%, 36.766052%, 47.584534%)" offset="0.140625"/><stop stop-opacity="1" stop-color="rgb(92.805481%, 36.569214%, 47.439575%)" offset="0.148438"/><stop stop-opacity="1" stop-color="rgb(92.875671%, 36.37085%, 47.294617%)" offset="0.15625"/><stop stop-opacity="1" stop-color="rgb(92.945862%, 36.174011%, 47.148132%)" offset="0.164062"/><stop stop-opacity="1" stop-color="rgb(93.014526%, 35.975647%, 47.003174%)" offset="0.171875"/><stop stop-opacity="1" stop-color="rgb(93.084717%, 35.777283%, 46.858215%)" offset="0.179688"/><stop stop-opacity="1" stop-color="rgb(93.154907%, 35.580444%, 46.713257%)" offset="0.1875"/><stop stop-opacity="1" stop-color="rgb(93.223572%, 35.38208%, 46.568298%)" offset="0.195313"/><stop stop-opacity="1" stop-color="rgb(93.293762%, 35.185242%, 46.42334%)" offset="0.203125"/><stop stop-opacity="1" stop-color="rgb(93.363953%, 34.986877%, 46.278381%)" offset="0.210938"/><stop stop-opacity="1" stop-color="rgb(93.432617%, 34.790039%, 46.133423%)" offset="0.21875"/><stop stop-opacity="1" stop-color="rgb(93.502808%, 34.591675%, 45.988464%)" offset="0.219155"/><stop stop-opacity="1" stop-color="rgb(93.537903%, 34.492493%, 45.916748%)" offset="0.226562"/><stop stop-opacity="1" stop-color="rgb(93.572998%, 34.393311%, 45.843506%)" offset="0.234375"/><stop stop-opacity="1" stop-color="rgb(93.641663%, 34.196472%, 45.698547%)" offset="0.242188"/><stop stop-opacity="1" stop-color="rgb(93.711853%, 33.998108%, 45.553589%)" offset="0.25"/><stop stop-opacity="1" stop-color="rgb(93.782043%, 33.80127%, 45.40863%)" offset="0.257812"/><stop stop-opacity="1" stop-color="rgb(93.850708%, 33.602905%, 45.262146%)" offset="0.265625"/><stop stop-opacity="1" stop-color="rgb(93.920898%, 33.406067%, 45.117188%)" offset="0.273438"/><stop stop-opacity="1" stop-color="rgb(93.991089%, 33.207703%, 44.972229%)" offset="0.28125"/><stop stop-opacity="1" stop-color="rgb(94.059753%, 33.010864%, 44.827271%)" offset="0.289063"/><stop stop-opacity="1" stop-color="rgb(94.129944%, 32.8125%, 44.682312%)" offset="0.296875"/><stop stop-opacity="1" stop-color="rgb(94.200134%, 32.614136%, 44.537354%)" offset="0.304688"/><stop stop-opacity="1" stop-color="rgb(94.268799%, 32.417297%, 44.392395%)" offset="0.3125"/><stop stop-opacity="1" stop-color="rgb(94.338989%, 32.218933%, 44.247437%)" offset="0.320312"/><stop stop-opacity="1" stop-color="rgb(94.40918%, 32.022095%, 44.102478%)" offset="0.328125"/><stop stop-opacity="1" stop-color="rgb(94.47937%, 31.82373%, 43.95752%)" offset="0.335938"/><stop stop-opacity="1" stop-color="rgb(94.548035%, 31.626892%, 43.812561%)" offset="0.34375"/><stop stop-opacity="1" stop-color="rgb(94.618225%, 31.428528%, 43.667603%)" offset="0.351563"/><stop stop-opacity="1" stop-color="rgb(94.688416%, 31.230164%, 43.522644%)" offset="0.359375"/><stop stop-opacity="1" stop-color="rgb(94.75708%, 31.033325%, 43.377686%)" offset="0.367188"/><stop stop-opacity="1" stop-color="rgb(94.827271%, 30.834961%, 43.231201%)" offset="0.375"/><stop stop-opacity="1" stop-color="rgb(94.897461%, 30.638123%, 43.086243%)" offset="0.382813"/><stop stop-opacity="1" stop-color="rgb(94.966125%, 30.439758%, 42.941284%)" offset="0.390625"/><stop stop-opacity="1" stop-color="rgb(95.036316%, 30.24292%, 42.796326%)" offset="0.398438"/><stop stop-opacity="1" stop-color="rgb(95.106506%, 30.044556%, 42.651367%)" offset="0.40625"/><stop stop-opacity="1" stop-color="rgb(95.175171%, 29.847717%, 42.506409%)" offset="0.414063"/><stop stop-opacity="1" stop-color="rgb(95.245361%, 29.649353%, 42.36145%)" offset="0.421875"/><stop stop-opacity="1" stop-color="rgb(95.315552%, 29.450989%, 42.216492%)" offset="0.429688"/><stop stop-opacity="1" stop-color="rgb(95.384216%, 29.25415%, 42.071533%)" offset="0.4375"/><stop stop-opacity="1" stop-color="rgb(95.454407%, 29.055786%, 41.926575%)" offset="0.445313"/><stop stop-opacity="1" stop-color="rgb(95.524597%, 28.858948%, 41.781616%)" offset="0.453125"/><stop stop-opacity="1" stop-color="rgb(95.593262%, 28.660583%, 41.636658%)" offset="0.460938"/><stop stop-opacity="1" stop-color="rgb(95.663452%, 28.463745%, 41.491699%)" offset="0.46875"/><stop stop-opacity="1" stop-color="rgb(95.733643%, 28.265381%, 41.345215%)" offset="0.476562"/><stop stop-opacity="1" stop-color="rgb(95.802307%, 28.067017%, 41.200256%)" offset="0.484375"/><stop stop-opacity="1" stop-color="rgb(95.872498%, 27.870178%, 41.055298%)" offset="0.492188"/><stop stop-opacity="1" stop-color="rgb(95.942688%, 27.671814%, 40.910339%)" offset="0.5"/><stop stop-opacity="1" stop-color="rgb(96.011353%, 27.474976%, 40.765381%)" offset="0.507812"/><stop stop-opacity="1" stop-color="rgb(96.081543%, 27.276611%, 40.620422%)" offset="0.515625"/><stop stop-opacity="1" stop-color="rgb(96.151733%, 27.079773%, 40.475464%)" offset="0.523438"/><stop stop-opacity="1" stop-color="rgb(96.220398%, 26.881409%, 40.330505%)" offset="0.53125"/><stop stop-opacity="1" stop-color="rgb(96.290588%, 26.68457%, 40.185547%)" offset="0.539062"/><stop stop-opacity="1" stop-color="rgb(96.360779%, 26.486206%, 40.040588%)" offset="0.546875"/><stop stop-opacity="1" stop-color="rgb(96.429443%, 26.287842%, 39.89563%)" offset="0.554688"/><stop stop-opacity="1" stop-color="rgb(96.499634%, 26.091003%, 39.750671%)" offset="0.5625"/><stop stop-opacity="1" stop-color="rgb(96.569824%, 25.892639%, 39.605713%)" offset="0.570312"/><stop stop-opacity="1" stop-color="rgb(96.638489%, 25.695801%, 39.460754%)" offset="0.578125"/><stop stop-opacity="1" stop-color="rgb(96.708679%, 25.497437%, 39.31427%)" offset="0.585938"/><stop stop-opacity="1" stop-color="rgb(96.77887%, 25.300598%, 39.169312%)" offset="0.59375"/><stop stop-opacity="1" stop-color="rgb(96.847534%, 25.102234%, 39.024353%)" offset="0.601562"/><stop stop-opacity="1" stop-color="rgb(96.917725%, 24.90387%, 38.879395%)" offset="0.609375"/><stop stop-opacity="1" stop-color="rgb(96.987915%, 24.707031%, 38.734436%)" offset="0.617188"/><stop stop-opacity="1" stop-color="rgb(97.05658%, 24.508667%, 38.589478%)" offset="0.625"/><stop stop-opacity="1" stop-color="rgb(97.12677%, 24.311829%, 38.444519%)" offset="0.632813"/><stop stop-opacity="1" stop-color="rgb(97.19696%, 24.113464%, 38.299561%)" offset="0.640625"/><stop stop-opacity="1" stop-color="rgb(97.265625%, 23.916626%, 38.154602%)" offset="0.648438"/><stop stop-opacity="1" stop-color="rgb(97.335815%, 23.718262%, 38.009644%)" offset="0.65625"/><stop stop-opacity="1" stop-color="rgb(97.406006%, 23.521423%, 37.864685%)" offset="0.664063"/><stop stop-opacity="1" stop-color="rgb(97.47467%, 23.323059%, 37.719727%)" offset="0.671875"/><stop stop-opacity="1" stop-color="rgb(97.544861%, 23.124695%, 37.574768%)" offset="0.679688"/><stop stop-opacity="1" stop-color="rgb(97.615051%, 22.927856%, 37.428284%)" offset="0.6875"/><stop stop-opacity="1" stop-color="rgb(97.683716%, 22.729492%, 37.283325%)" offset="0.695312"/><stop stop-opacity="1" stop-color="rgb(97.753906%, 22.532654%, 37.138367%)" offset="0.703125"/><stop stop-opacity="1" stop-color="rgb(97.824097%, 22.33429%, 36.993408%)" offset="0.710938"/><stop stop-opacity="1" stop-color="rgb(97.892761%, 22.137451%, 36.84845%)" offset="0.71875"/><stop stop-opacity="1" stop-color="rgb(97.962952%, 21.939087%, 36.703491%)" offset="0.726562"/><stop stop-opacity="1" stop-color="rgb(98.033142%, 21.740723%, 36.558533%)" offset="0.734375"/><stop stop-opacity="1" stop-color="rgb(98.103333%, 21.543884%, 36.413574%)" offset="0.742188"/><stop stop-opacity="1" stop-color="rgb(98.171997%, 21.34552%, 36.268616%)" offset="0.75"/><stop stop-opacity="1" stop-color="rgb(98.242188%, 21.148682%, 36.123657%)" offset="0.757812"/><stop stop-opacity="1" stop-color="rgb(98.312378%, 20.950317%, 35.978699%)" offset="0.765625"/><stop stop-opacity="1" stop-color="rgb(98.381042%, 20.753479%, 35.83374%)" offset="0.773438"/><stop stop-opacity="1" stop-color="rgb(98.451233%, 20.555115%, 35.688782%)" offset="0.780845"/><stop stop-opacity="1" stop-color="rgb(98.486328%, 20.457458%, 35.61554%)" offset="0.78125"/><stop stop-opacity="1" stop-color="rgb(98.521423%, 20.358276%, 35.542297%)" offset="0.789062"/><stop stop-opacity="1" stop-color="rgb(98.590088%, 20.159912%, 35.397339%)" offset="0.796875"/><stop stop-opacity="1" stop-color="rgb(98.660278%, 19.961548%, 35.25238%)" offset="0.804688"/><stop stop-opacity="1" stop-color="rgb(98.730469%, 19.764709%, 35.107422%)" offset="0.8125"/><stop stop-opacity="1" stop-color="rgb(98.799133%, 19.566345%, 34.962463%)" offset="0.820312"/><stop stop-opacity="1" stop-color="rgb(98.869324%, 19.369507%, 34.817505%)" offset="0.828125"/><stop stop-opacity="1" stop-color="rgb(98.939514%, 19.171143%, 34.672546%)" offset="0.835938"/><stop stop-opacity="1" stop-color="rgb(99.008179%, 18.974304%, 34.527588%)" offset="0.84375"/><stop stop-opacity="1" stop-color="rgb(99.078369%, 18.77594%, 34.382629%)" offset="0.851562"/><stop stop-opacity="1" stop-color="rgb(99.14856%, 18.577576%, 34.237671%)" offset="0.859375"/><stop stop-opacity="1" stop-color="rgb(99.217224%, 18.380737%, 34.092712%)" offset="0.867188"/><stop stop-opacity="1" stop-color="rgb(99.287415%, 18.182373%, 33.947754%)" offset="0.875"/><stop stop-opacity="1" stop-color="rgb(99.357605%, 17.985535%, 33.802795%)" offset="0.882813"/><stop stop-opacity="1" stop-color="rgb(99.42627%, 17.78717%, 33.657837%)" offset="0.890625"/><stop stop-opacity="1" stop-color="rgb(99.530029%, 17.494202%, 33.441162%)" offset="0.90625"/><stop stop-opacity="1" stop-color="rgb(99.598694%, 17.298889%, 33.299255%)" offset="0.9375"/><stop stop-opacity="1" stop-color="rgb(99.598694%, 17.298889%, 33.299255%)" offset="1"/></linearGradient></defs><rect x="-76.8" width="921.6" fill="#ffffff" y="-76.799999" height="921.599993" fill-opacity="1"/><rect x="-76.8" width="921.6" fill="#110c4a" y="-76.799999" height="921.599993" fill-opacity="1"/><g clip-path="url(#f7a45b05c5)"><g clip-path="url(#4887d56414)"><path fill="url(#28aa6442ce)" d="M 122.167969 306.066406 L 122.167969 462.21875 L 295.273438 462.21875 L 295.273438 306.066406 Z M 122.167969 306.066406 " fill-rule="nonzero"/></g></g><g fill="#ffffff" fill-opacity="1"><g transform="translate(328.429206, 375.637958)"><g><path d="M 22.828125 0.953125 C 15.960938 0.953125 10.632812 -0.515625 6.84375 -3.453125 C 3.050781 -6.390625 1.15625 -10.476562 1.15625 -15.71875 L 19.4375 -15.71875 C 19.4375 -13.226562 20.613281 -11.984375 22.96875 -11.984375 C 25 -11.984375 26.015625 -12.773438 26.015625 -14.359375 C 26.015625 -15.347656 25.484375 -16.125 24.421875 -16.6875 C 23.359375 -17.257812 21.492188 -17.75 18.828125 -18.15625 C 12.828125 -19.050781 8.4375 -20.660156 5.65625 -22.984375 C 2.875 -25.316406 1.484375 -28.628906 1.484375 -32.921875 C 1.484375 -37.753906 3.320312 -41.535156 7 -44.265625 C 10.6875 -46.992188 15.757812 -48.359375 22.21875 -48.359375 C 28.757812 -48.359375 33.878906 -46.9375 37.578125 -44.09375 C 41.285156 -41.25 43.253906 -37.207031 43.484375 -31.96875 L 25.734375 -31.96875 C 25.734375 -34.40625 24.609375 -35.625 22.359375 -35.625 C 20.316406 -35.625 19.296875 -34.859375 19.296875 -33.328125 C 19.296875 -32.328125 19.816406 -31.554688 20.859375 -31.015625 C 21.898438 -30.472656 23.796875 -30 26.546875 -29.59375 C 32.867188 -28.644531 37.429688 -27.007812 40.234375 -24.6875 C 43.035156 -22.363281 44.4375 -19.054688 44.4375 -14.765625 C 44.4375 -9.847656 42.550781 -6 38.78125 -3.21875 C 35.007812 -0.4375 29.691406 0.953125 22.828125 0.953125 Z M 22.828125 0.953125 "/></g></g></g><g fill="#ffffff" fill-opacity="1"><g transform="translate(377.599678, 375.637958)"><g><path d="M 27.96875 0.953125 C 22.644531 0.953125 17.972656 -0.09375 13.953125 -2.1875 C 9.929688 -4.289062 6.8125 -7.191406 4.59375 -10.890625 C 2.382812 -14.597656 1.28125 -18.867188 1.28125 -23.703125 C 1.28125 -28.535156 2.382812 -32.800781 4.59375 -36.5 C 6.8125 -40.207031 9.929688 -43.109375 13.953125 -45.203125 C 17.972656 -47.304688 22.644531 -48.359375 27.96875 -48.359375 C 33.34375 -48.359375 38.03125 -47.304688 42.03125 -45.203125 C 46.03125 -43.109375 49.132812 -40.207031 51.34375 -36.5 C 53.550781 -32.800781 54.65625 -28.535156 54.65625 -23.703125 C 54.65625 -18.867188 53.550781 -14.597656 51.34375 -10.890625 C 49.132812 -7.191406 46.03125 -4.289062 42.03125 -2.1875 C 38.03125 -0.09375 33.34375 0.953125 27.96875 0.953125 Z M 20.59375 -23.703125 C 20.59375 -21.492188 21.28125 -19.695312 22.65625 -18.3125 C 24.03125 -16.9375 25.800781 -16.25 27.96875 -16.25 C 30.132812 -16.25 31.90625 -16.9375 33.28125 -18.3125 C 34.664062 -19.695312 35.359375 -21.492188 35.359375 -23.703125 C 35.359375 -25.921875 34.664062 -27.71875 33.28125 -29.09375 C 31.90625 -30.46875 30.132812 -31.15625 27.96875 -31.15625 C 25.800781 -31.15625 24.03125 -30.46875 22.65625 -29.09375 C 21.28125 -27.71875 20.59375 -25.921875 20.59375 -23.703125 Z M 20.59375 -23.703125 "/></g></g></g><g fill="#ffffff" fill-opacity="1"><g transform="translate(436.929159, 375.637958)"><g><path d="M 26.75 0.953125 C 21.644531 0.953125 17.1875 -0.0820312 13.375 -2.15625 C 9.5625 -4.238281 6.59375 -7.128906 4.46875 -10.828125 C 2.34375 -14.535156 1.28125 -18.828125 1.28125 -23.703125 C 1.28125 -28.578125 2.351562 -32.863281 4.5 -36.5625 C 6.644531 -40.269531 9.632812 -43.160156 13.46875 -45.234375 C 17.3125 -47.316406 21.71875 -48.359375 26.6875 -48.359375 C 34.050781 -48.359375 40.007812 -46.4375 44.5625 -42.59375 C 49.125 -38.757812 51.878906 -33.34375 52.828125 -26.34375 L 34.484375 -26.34375 C 33.984375 -27.882812 33.109375 -29.070312 31.859375 -29.90625 C 30.617188 -30.738281 29.210938 -31.15625 27.640625 -31.15625 C 25.554688 -31.15625 23.859375 -30.476562 22.546875 -29.125 C 21.242188 -27.769531 20.59375 -25.960938 20.59375 -23.703125 C 20.59375 -21.492188 21.234375 -19.695312 22.515625 -18.3125 C 23.804688 -16.9375 25.488281 -16.25 27.5625 -16.25 C 29.238281 -16.25 30.695312 -16.6875 31.9375 -17.5625 C 33.175781 -18.445312 34.046875 -19.660156 34.546875 -21.203125 L 52.90625 -21.203125 C 52.5 -16.679688 51.117188 -12.757812 48.765625 -9.4375 C 46.421875 -6.125 43.363281 -3.5625 39.59375 -1.75 C 35.820312 0.0507812 31.539062 0.953125 26.75 0.953125 Z M 26.75 0.953125 "/></g></g></g><g fill="#ffffff" fill-opacity="1"><g transform="translate(494.430017, 375.637958)"><g><path d="M 3.3125 0 L 3.3125 -47.421875 L 22.6875 -47.421875 L 22.6875 0 Z M 3.3125 0 "/></g></g></g><g fill="#ffffff" fill-opacity="1"><g transform="translate(523.824265, 375.637958)"><g><path d="M 0.0625 0 L 16.796875 -47.421875 L 37.796875 -47.421875 L 54.453125 0 L 34.546875 0 L 32.921875 -5.34375 L 21.40625 -5.34375 L 19.78125 0 Z M 23.90625 -16.796875 L 30.484375 -16.796875 L 27.5 -28.171875 L 26.890625 -28.171875 Z M 23.90625 -16.796875 "/></g></g></g><g fill="#ffffff" fill-opacity="1"><g transform="translate(581.799218, 375.637958)"><g><path d="M 3.3125 0 L 3.3125 -47.421875 L 22.6875 -47.421875 L 22.6875 -17.40625 L 39.28125 -17.40625 L 39.28125 0 Z M 3.3125 0 "/></g></g></g><g fill="#fe2c55" fill-opacity="1"><g transform="translate(328.429206, 434.398202)"><g><path d="M 12.90625 0 L 0.046875 -37.9375 L 16.421875 -37.9375 L 19.078125 -27 L 21.03125 -18.21875 L 21.515625 -18.21875 L 23.46875 -27 L 26.125 -37.9375 L 42.5 -37.9375 L 29.703125 0 Z M 12.90625 0 "/></g></g></g><g fill="#fe2c55" fill-opacity="1"><g transform="translate(373.737314, 434.398202)"><g><path d="M 2.65625 0 L 2.65625 -37.9375 L 31.546875 -37.9375 L 31.546875 -27.484375 L 17.453125 -27.484375 L 17.453125 -24.0625 L 30.25 -24.0625 L 30.25 -14.140625 L 17.453125 -14.140625 L 17.453125 -10.625 L 31.984375 -10.625 L 31.984375 0 Z M 2.65625 0 "/></g></g></g><g fill="#fe2c55" fill-opacity="1"><g transform="translate(410.211533, 434.398202)"><g><path d="M 2.65625 0 L 2.65625 -37.9375 L 15.171875 -37.9375 L 24.9375 -24.234375 L 25.421875 -24.28125 L 25.15625 -29.375 L 25.15625 -37.9375 L 40.109375 -37.9375 L 40.109375 0 L 27.640625 0 L 17.828125 -13.765625 L 17.40625 -13.71875 L 17.609375 -8.5625 L 17.609375 0 Z M 2.65625 0 "/></g></g></g><g fill="#fe2c55" fill-opacity="1"><g transform="translate(455.682229, 434.398202)"><g><path d="M 11.875 0 L 11.875 -24.234375 L 1.46875 -24.234375 L 1.46875 -37.9375 L 37.78125 -37.9375 L 37.78125 -24.234375 L 27.375 -24.234375 L 27.375 0 Z M 11.875 0 "/></g></g></g><g fill="#fe2c55" fill-opacity="1"><g transform="translate(497.630206, 434.398202)"><g><path d="M 20.8125 0.765625 C 15.070312 0.765625 10.570312 -0.695312 7.3125 -3.625 C 4.0625 -6.550781 2.4375 -10.671875 2.4375 -15.984375 L 2.4375 -37.9375 L 17.9375 -37.9375 L 17.9375 -16.640625 C 17.9375 -14.285156 18.894531 -13.109375 20.8125 -13.109375 C 22.757812 -13.109375 23.734375 -14.285156 23.734375 -16.640625 L 23.734375 -37.9375 L 39.25 -37.9375 L 39.25 -15.984375 C 39.25 -10.671875 37.617188 -6.550781 34.359375 -3.625 C 31.109375 -0.695312 26.59375 0.765625 20.8125 0.765625 Z M 20.8125 0.765625 "/></g></g></g><g fill="#fe2c55" fill-opacity="1"><g transform="translate(542.016977, 434.398202)"><g><path d="M 2.65625 0 L 2.65625 -37.9375 L 23.203125 -37.9375 C 26.554688 -37.9375 29.4375 -37.359375 31.84375 -36.203125 C 34.25 -35.046875 36.097656 -33.410156 37.390625 -31.296875 C 38.691406 -29.179688 39.34375 -26.644531 39.34375 -23.6875 C 39.34375 -21.332031 38.925781 -19.234375 38.09375 -17.390625 C 37.269531 -15.554688 36.0625 -14.003906 34.46875 -12.734375 L 40.171875 0 L 23.6875 0 L 20.109375 -9.4375 L 17.890625 -9.4375 L 17.890625 0 Z M 17.671875 -19.953125 L 20.265625 -19.953125 C 21.421875 -19.953125 22.320312 -20.238281 22.96875 -20.8125 C 23.625 -21.394531 23.953125 -22.242188 23.953125 -23.359375 C 23.953125 -24.515625 23.625 -25.363281 22.96875 -25.90625 C 22.320312 -26.445312 21.421875 -26.71875 20.265625 -26.71875 L 17.671875 -26.71875 Z M 17.671875 -19.953125 "/></g></g></g><g fill="#fe2c55" fill-opacity="1"><g transform="translate(586.024398, 434.398202)"><g><path d="M 0.046875 0 L 13.4375 -37.9375 L 30.25 -37.9375 L 43.578125 0 L 27.640625 0 L 26.34375 -4.28125 L 17.125 -4.28125 L 15.828125 0 Z M 19.140625 -13.4375 L 24.390625 -13.4375 L 22 -22.546875 L 21.515625 -22.546875 Z M 19.140625 -13.4375 "/></g></g></g></svg>